<?xml version="1.0" encoding="UTF-8" standalone="no"?>
<!-- Created with Inkscape (http://www.inkscape.org/) -->

<svg
   width="550"
   height="167"
   viewBox="0 0 145.52083 44.185416"
   version="1.1"
   id="svg3221"
   inkscape:version="1.2.2 (732a01da63, 2022-12-09)"
   sodipodi:docname="AluraChanllenges.svg"
   xmlns:inkscape="http://www.inkscape.org/namespaces/inkscape"
   xmlns:sodipodi="http://sodipodi.sourceforge.net/DTD/sodipodi-0.dtd"
   xmlns="http://www.w3.org/2000/svg"
   xmlns:svg="http://www.w3.org/2000/svg">
  <sodipodi:namedview
     id="namedview3223"
     pagecolor="#ffffff"
     bordercolor="#000000"
     borderopacity="0.25"
     inkscape:showpageshadow="2"
     inkscape:pageopacity="0.0"
     inkscape:pagecheckerboard="0"
     inkscape:deskcolor="#d1d1d1"
     inkscape:document-units="px"
     showgrid="false"
     inkscape:zoom="0.72515432"
     inkscape:cx="193.06235"
     inkscape:cy="120.66397"
     inkscape:window-width="1920"
     inkscape:window-height="1001"
     inkscape:window-x="-9"
     inkscape:window-y="-9"
     inkscape:window-maximized="1"
     inkscape:current-layer="layer1" />
  <defs
     id="defs3218" />
  <g
     inkscape:label="Capa 1"
     inkscape:groupmode="layer"
     id="layer1">
    <g
       id="g4995"
       transform="matrix(0.10972367,0,0,0.10972367,23.983418,58.888574)"
       inkscape:export-filename="AluraChallenges.png"
       inkscape:export-xdpi="200"
       inkscape:export-ydpi="200">
      <path
         style="opacity:0.983553;fill:#ffffff;fill-opacity:1;stroke:none;stroke-width:3.53553;stroke-linecap:round;stroke-linejoin:round;stroke-miterlimit:0"
         d="m -142.51126,-191.8944 c -3.21109,-1.4586 -6.42265,-4.90247 -7.2188,-7.74099 -0.69288,-2.47033 -0.69288,-257.28242 0,-259.75275 0.79615,-2.83852 4.00771,-6.28239 7.2188,-7.74098 2.74187,-1.24547 8.57441,-1.29807 143.9254699,-1.29807 135.3510701,0 141.1836201,0.0526 143.9254901,1.29807 3.21109,1.45859 6.42264,4.90246 7.2188,7.74098 0.69288,2.47033 0.69288,257.28242 0,259.75275 -0.79616,2.83852 -4.00771,6.28239 -7.2188,7.74099 -2.74187,1.24545 -8.57442,1.29806 -143.9254901,1.29806 -135.3510599,0 -141.1835999,-0.0526 -143.9254699,-1.29806 z"
         id="path3746" />
      <g
         id="g3690">
        <path
           id="path3613"
           style="fill:#da8a40;fill-opacity:1"
           d="m 0.21289062,-516.20117 c -97.42375762,0.0123 -104.32036062,0.12769 -112.82422062,1.88281 -11.22233,2.31619 -19.16317,5.47536 -28.70703,11.42383 -14.39024,8.96906 -26.86163,23.82218 -33.60547,40.02148 -6.25846,15.0336 -6.22263,14.22739 -5.89062,132.27539 0.3006,106.88186 0.3014,106.88366 2.55664,114.21289 9.67094,31.42951 33.51448,53.88548 64.40039,60.6543 5.18164,1.13564 25.874343,1.34656 116.3027325,1.18359 109.9993375,-0.19818 110.0015075,-0.19858 117.3300775,-2.45898 14.74571,-4.54803 26.8563,-12.03287 37.77734,-23.34766 7.99499,-8.28314 12.56342,-15.07365 17.12696,-25.45507 6.85717,-15.59927 6.60318,-11.14245 7.00976,-122.40625 0.37058,-101.41123 0.0799,-112.6126 -3.25195,-125.5 -3.85828,-14.92372 -16.05901,-33.3268 -29.01172,-43.76172 -8.82894,-7.1128 -24.03657,-14.21779 -35.71289,-16.6836 -9.4637,-1.99852 -12.59903,-2.05381 -113.49999938,-2.04101 z m 60.73242138,49.98633 h 12 12 v 27 c 0,14.84988 -0.1125,26.95479 -0.25,26.90039 -4.13287,-1.63445 -10.81207,-3.0781 -16.5,-3.56836 l -7.25,-0.625 v -24.85352 z m -75.189453,56 c 0.488568,0.003 0.745156,-0.003 1.09961,0 l 18.7949216,0.0371 c 32.7292394,0.0664 68.2317794,1.67254 75.8261714,3.42968 12.050888,2.78824 22.664318,8.66202 31.382818,17.36914 12.64276,12.62639 18.08593,26.07604 18.08593,44.6836 0,15.59389 -4.18688,28.21273 -13.10742,39.49804 -7.66105,9.69196 -22.152017,18.51257 -35.162109,21.4043 -25.508144,5.66964 -49.557365,-0.70683 -64.695312,-17.1543 C 6.291897,-313.6467 1.0959361,-329.08905 1.8261719,-348.96484 l 0.1191406,-3.25 h 31.9999995 32 v 8.47851 8.47656 l -18.75,0.27344 -18.75,0.27149 0.310547,3 c 0.50945,4.93749 4.978734,13.07654 9.34961,17.02539 6.595908,5.95898 13.929109,8.79995 23.980469,9.28906 9.91212,0.48234 16.323416,-1.1348 24.230468,-6.11133 19.781264,-12.44982 23.232194,-44.07483 6.759766,-61.94531 -9.265686,-10.05209 -21.074203,-12.65114 -61.22461,-13.47266 l -26.6054682,-0.57226 c -0.6096711,-0.0243 -0.8010345,-0.0333 -1.4609376,-0.0469 l -26.6855472,0.54297 c -51.370108,1.36688 -58.770917,2.65279 -68.210937,11.84766 -9.171242,8.93307 -13.115872,21.84265 -11.078122,36.25195 2.07336,14.6615 8.473688,24.27222 19.912106,29.89844 6.154204,3.02701 7.459593,3.29135 16.208985,3.28125 8.514896,-0.01 10.122917,-0.3177 15.304687,-2.93164 6.733828,-3.39696 13.062621,-9.83925 15.845703,-16.13086 1.076724,-2.43412 2.293521,-4.42578 2.703125,-4.42578 1.784198,0 24.6570514,3.16291 24.9433596,3.44922 0.7599258,0.75987 -4.2055776,13.46977 -6.9374996,17.75781 -6.987378,10.96739 -20.775222,20.65152 -34.429688,24.18164 -23.845216,6.16469 -48.855433,-0.55573 -64.763668,-17.4043 -11.33742,-12.00758 -16.66436,-25.91068 -16.72266,-43.63867 -0.0616,-18.7339 5.55883,-32.90721 18.01953,-45.43945 8.4358,-8.48433 20.081912,-15.0625 30.050782,-16.97266 5.61449,-1.0758 40.741418,-2.82403 58.15625,-2.89453 z m 97.189453,130.72851 v 14.92578 c 10e-7,21.31968 -2.660457,29.95783 -12.376953,40.18555 -5.568454,5.86142 -10.808086,9.33916 -18.923828,12.5625 -23.562563,9.35832 -51.06446077,-1.17933 -63.03125,-24.15234 l -3.77539,-7.25 -6.195313,-0.0312 c -3.407486,-0.0175 -6.891953,-0.58 -7.742187,-1.25 -7.328668,-5.77519 -6.313804,-20.73105 1.611328,-23.74414 1.410538,-0.53629 12.930487,-0.97461 25.5996091,-0.97461 H 21.146484 l 3.400391,3.40039 c 3.154342,3.1543 3.399531,3.85878 3.394531,9.75 -0.0041,5.1957 -0.44043,6.89492 -2.402344,9.34961 -2.200582,2.75328 -3.027141,3.04111 -10.037109,3.5 l -7.6367186,0.5 2.9414066,4.62695 c 2.143482,3.37265 4.390396,5.3324 8.289062,7.22656 14.867857,7.22346 31.479795,2.41873 39.248047,-11.35351 3.035292,-5.38127 3.108992,-5.82934 3.441406,-20.75 l 0.339844,-15.25 h 5.771484 c 3.173852,0 7.858399,-0.28697 10.410157,-0.63672 z" />
        <path
           id="path3611"
           style="fill:#000000"
           d="m 868.91797,-325.21484 c -29.35962,0 -50.51055,24.23087 -46.12891,52.84765 2.7904,18.2234 15.01665,31.66343 33.26953,36.57227 11.07534,2.97854 26.2748,1.48447 36.14844,-3.55274 9.25784,-4.72295 16.95155,-13.40258 20.24805,-22.84375 2.0901,-5.98609 3.61211,-17.16827 2.85351,-20.96093 l -0.61328,-3.0625 h -23.375 -23.375 v 7.5 7.5 h 11 c 12.28254,0 12.57861,0.21257 8.53711,6.16015 -3.32974,4.9002 -9.66012,7.83985 -16.88476,7.83985 -6.9423,0 -11.13268,-1.63461 -15.57422,-6.07618 -4.5103,-4.51027 -6.32031,-9.21441 -6.32032,-16.42382 10e-6,-15.70141 11.74867,-25.91959 25.74805,-22.39454 4.4896,1.13049 10.67949,5.81584 11.65039,8.81836 0.389,1.20321 2.35531,1.07172 12.65235,-0.84765 7.59134,-1.41503 12.1914,-2.72776 12.1914,-3.47852 0,-2.95398 -5.49834,-11.79224 -9.89648,-15.90625 -8.51324,-7.96318 -18.76112,-11.6914 -32.13086,-11.6914 z m -578.51172,0.0117 c -22.281,-0.0376 -38.83161,12.26093 -44.98437,33.42578 -2.32061,7.98255 -1.63406,21.84705 1.48046,29.90625 4.53122,11.72473 16.15325,22.24827 28.46485,25.77343 11.42925,3.27257 25.34964,2.17384 36.83398,-2.90625 9.90603,-4.38188 19.99907,-17.03003 20.90235,-26.19726 l 0.34179,-3.48828 -9,-1.17578 c -14.58163,-1.90676 -14.6872,-1.88888 -17.06445,2.94531 -2.97621,6.05215 -9.46182,9.84765 -16.82422,9.84765 -7.57001,0 -13.06175,-3.07687 -17.07031,-9.56445 -2.73717,-4.42985 -3.04102,-5.73622 -3.04102,-13.07812 0,-7.34196 0.30385,-8.64822 3.04102,-13.07813 5.35963,-8.67418 16.82832,-12.38443 25.08398,-8.11523 3.75753,1.94303 9.14237,7.91364 9.91602,10.99609 0.56873,2.26602 0.56802,2.26671 11.76367,1.03125 6.15759,-0.6795 11.74813,-1.25826 12.42188,-1.28516 0.83978,-0.0335 1.02675,-1.07073 0.59765,-3.29882 -3.52846,-18.32187 -21.59872,-31.70244 -42.86328,-31.73828 z m 740.49995,0.14062 c -1.1012,0.009 -2.2167,0.0512 -3.3457,0.12695 -19.8385,1.33114 -31.60854,11.63951 -32.46284,28.4336 -0.8007,15.74079 7.27184,22.94718 29.96874,26.7539 5.1586,0.86522 11.3217,2.28682 13.6953,3.16016 7.3983,2.72205 7.7326,8.99219 0.6367,11.95703 -8.0216,3.35166 -18.0896,0.1788 -21.1035,-6.65234 l -1.7344,-3.93164 h -11.3183 -11.32032 l 0.67382,4.25 c 1.9082,12.0344 11.1306,21.69408 24.127,25.27148 9.981,2.74757 25.1594,1.44931 34.4121,-2.94141 14.4256,-6.84528 20.8207,-23.42738 14.375,-37.27148 -3.767,-8.09057 -11.1662,-11.90029 -28.8848,-14.87305 -12.2777,-2.05985 -15.4562,-3.16542 -17.3301,-6.02539 -1.4395,-2.19688 -1.4395,-2.62343 0,-4.82031 3.2004,-4.88454 13.9983,-5.90645 19.5645,-1.85156 1.4226,1.03635 3.2609,3.30875 4.0859,5.05078 l 1.5,3.16797 10.75,0.0215 10.75,0.0215 v -2.91797 c 0,-1.60441 -0.8682,-4.94156 -1.9297,-7.41797 -4.9358,-11.51486 -16.8479,-18.64824 -31.8496,-19.43945 -1.0715,-0.0565 -2.1585,-0.0811 -3.2598,-0.0723 z m -686.96089,2.84766 v 42.5 42.5 h 13 13 v -16.5 -16.5 h 14 14 v 16.5 16.5 h 13 13 v -42.5 -42.5 h -13 -13 v 15.5 15.5 h -14 -14 v -15.5 -15.5 h -13 z m 112.34766,0 -12.81445,41.25 c -7.04792,22.68732 -13.02495,41.8125 -13.28125,42.5 -0.3588,0.96242 2.73581,1.25 13.44531,1.25 h 13.9082 l 1.49805,-5.75 1.49609,-5.75 14.68946,-0.27735 14.68945,-0.27539 1.67383,6.02539 1.67578,6.02735 h 13.94336 c 10.7286,0 13.83974,-0.28817 13.49218,-1.25 -0.24842,-0.6875 -6.24263,-19.81268 -13.32031,-42.5 l -12.86914,-41.25 h -19.11328 z m 70.65234,0 v 42.5 42.5 h 29 29 v -11 -11 h -15.5 -15.5 v -31.5 -31.5 h -13.5 z m 67,0 v 42.5 42.5 h 28.5 28.5 v -11 -11 h -15.5 -15.5 v -31.5 -31.5 h -13 z m 66,0 v 42.5 42.5 h 31 31 v -10.5 -10.5 h -18 -18 v -6.5 -6.5 h 15 15 v -9 -9 h -15 -15 v -6 -6 h 17.5 17.5 v -10.5 -10.5 h -30.5 z m 72,0 v 42.5 42.5 h 12.48438 12.48242 l 0.26758,-25.00196 0.26562,-25.00195 13.46094,25.00195 13.46094,25.00196 h 13.78906 13.78906 v -42.5 -42.5 h -11.98242 -11.98437 l -0.26563,26.1914 -0.26758,26.19336 -14,-26.18164 -14,-26.18164 -13.75,-0.01 z m 193,0 v 42.5 42.5 h 31.53516 31.53515 l -0.28515,-10.25 -0.28516,-10.25 -18.25,-0.27344 -18.25,-0.27149 v -6.47851 -6.47656 h 15.5 15.5 v -9 -9 h -15.5 -15.5 v -6 -6 h 17.5 17.5 v -10.5 -10.5 h -30.5 z m -449.60742,23.57226 c 0.28764,0.11216 1.75922,4.41907 3.41602,10.03516 1.7672,5.99044 3.86135,13.03008 4.65429,15.64258 l 1.44141,4.75 h -9.33203 -9.33203 l 4.43359,-14.75 c 2.43895,-8.1125 4.54393,-15.15208 4.67774,-15.64258 0.008,-0.0307 0.0218,-0.0426 0.041,-0.0352 z" />
        <path
           id="path3589"
           style="fill:#000000"
           d="m 302.94531,-441.31445 v 48.09961 48.09961 l 5.75,-0.30079 5.75,-0.29882 v -47.5 -47.5 l -5.75,-0.30078 z m 25.46094,25.09961 c -4.86512,0 -5.48373,0.24212 -6.01563,2.36132 -0.32599,1.29904 -0.44563,14.46166 -0.26757,29.25 0.28798,23.91707 0.52525,27.2221 2.15039,29.9043 2.34391,3.86849 7.7212,7.38012 13.01172,8.49805 10.8636,2.29558 23.9694,-1.38133 28.41015,-7.97071 2.2042,-3.27058 2.25,-3.92675 2.25,-32.1914 v -28.85156 h -6 -6 v 27.3457 c 0,31.78896 0.33868,30.71378 -9.85547,31.45117 -5.06995,0.36673 -6.14349,0.10729 -8.71289,-2.10156 l -2.93164,-2.51953 -0.30859,-27.58789 -0.3086,-27.58789 z m 71.34375,0 c -10.14219,0 -17.27415,3.45548 -20.55469,9.96093 -2.1723,4.30782 -2.25,5.42159 -2.25,32.25 v 27.78907 h 6 6 v -27.04493 -27.04687 l 2.45508,-2.45313 c 1.96057,-1.96052 3.4756,-2.45507 7.52539,-2.45507 5.44152,0 6.23155,-0.84419 7.71875,-8.25 l 0.55078,-2.75 z m -128.89258,0.13476 c -11.09738,0.11042 -18.53023,4.52236 -20.94726,12.58985 -1.71534,5.72526 -0.87838,7.27539 3.92382,7.27539 4.80866,0 7.11133,-0.80145 7.11133,-2.47266 0,-0.69198 0.9343,-2.44341 2.07422,-3.89258 1.81288,-2.3047 2.79852,-2.63476 7.86524,-2.63476 7.46515,0 11.06054,2.48407 11.06054,7.63867 0,5.91122 -1.22394,6.93738 -12.93554,10.83984 -15.72182,5.23875 -18.51666,8.00027 -19.7168,19.48242 -1.10407,10.56309 3.01539,17.21185 12.41797,20.04297 4.08833,1.23103 14.73602,1.15101 19.90429,-0.15039 2.81592,-0.70906 6.04026,-2.55963 8.44336,-4.8457 l 3.88672,-3.69727 v -24.50781 c 0,-23.76683 -0.0679,-24.60744 -2.25,-27.81836 -3.02053,-4.44476 -8.14401,-6.9102 -15.86133,-7.63086 -1.73096,-0.16164 -3.39122,-0.23452 -4.97656,-0.21875 z m 160.71485,0.01 c -0.56014,0.01 -1.11162,0.0306 -1.6543,0.0625 -6.51216,0.38262 -11.75094,2.33683 -15.12695,5.71289 -3.65921,3.65916 -5.70586,9.39429 -4.48633,12.57226 1.02623,2.67433 11.64062,1.79452 11.64062,-0.96484 0,-0.69198 0.9343,-2.44341 2.07422,-3.89258 1.81288,-2.3047 2.79852,-2.63476 7.86524,-2.63476 7.68691,0 11.06054,2.45078 11.06054,8.0332 0,4.92744 -2.17863,7.03179 -9.73828,9.40039 -11.3897,3.56863 -16.3802,5.78251 -18.7207,8.30664 -4.19558,4.52474 -5.78302,15.8922 -3.23438,23.16602 1.35315,3.86173 4.5132,6.53116 10.25196,8.66015 5.93936,2.20342 19.72256,1.42334 25.23242,-1.42773 7.89419,-4.08487 8.20303,-5.2963 8.20703,-32.24024 0.004,-22.83153 -0.0715,-23.71123 -2.24805,-26.91406 -3.02053,-4.44476 -8.14401,-6.9102 -15.86133,-7.63086 -1.82392,-0.17032 -3.5813,-0.23895 -5.26171,-0.20898 z m 11.54492,37.01953 c 0.13753,-0.009 0.256,0.0172 0.35742,0.0898 0.60852,0.43508 0.59102,2.53328 0.24023,8.68555 -0.42994,7.54043 -0.90939,9.64378 -2.5664,11.30078 -1.33769,1.33769 -3.69394,2.1573 -6.86914,2.38867 -8.00788,0.58352 -11.51921,-1.98566 -11.69141,-8.55273 -0.1391,-5.30472 1.96445,-7.32166 10.9668,-10.51758 4.12315,-1.46377 8.21413,-2.93663 9.09179,-3.27344 0.1766,-0.0678 0.33318,-0.11207 0.47071,-0.12109 z M 281.73828,-379 l 0.60352,3.01758 c 0.89272,4.46354 0.727,9.78754 -0.4375,13.98047 -0.86231,3.10479 -1.63935,3.88183 -4.74414,4.74414 -9.81075,2.72469 -16.21485,-0.84917 -16.21485,-9.05078 0,-3.397 4.416,-6.80614 12.64649,-9.76368 z" />
      </g>
    </g>
  </g>
</svg>
